<svg width="953" height="671" viewBox="0 0 953 671" fill="none" xmlns="http://www.w3.org/2000/svg">
<rect width="953" height="671" fill="#F5F5F5"/>
<g id="undraw_walk_ing_qkyj 1" clip-path="url(#clip0_0_1)">
<path id="Vector" d="M648.72 347.325C694.642 347.325 731.869 310.098 731.869 264.175C731.869 218.253 694.642 181.025 648.72 181.025C602.797 181.025 565.57 218.253 565.57 264.175C565.57 310.098 602.797 347.325 648.72 347.325Z" fill="url(#paint0_linear_0_1)"/>
<path id="Vector_2" d="M293 616.455C293 617.365 294.339 618.096 296.007 618.096H949.993C951.661 618.096 953 617.365 953 616.455C953 615.545 951.661 614.814 949.993 614.814H296.007C294.339 614.814 293 615.545 293 616.455Z" fill="#484565"/>
<path id="Vector_3" d="M457.902 616.454C457.902 617.365 456.973 618.096 455.816 618.096H2.086C0.92906 618.096 0 617.365 0 616.454C0 615.544 0.92905 614.813 2.086 614.813H455.816C456.973 614.813 457.902 615.544 457.902 616.454Z" fill="#484565"/>
<path id="Vector_4" d="M361.576 616.251L347.998 280.196L290.292 174.967H310.282C310.282 174.967 314.59 188.978 321.144 205.863C326.215 218.928 345.967 211.873 341.527 198.581C335.963 181.92 327.773 165.915 315.751 156.297L325.934 117.931C325.934 117.931 326.087 118.351 326.373 119.141C339.689 155.917 384.833 168.197 415.722 144.205C420.503 140.492 425.647 137.628 431.163 135.93L441.347 190.242C441.347 190.242 410.078 190.242 390.867 218.675C379.584 235.375 404.116 252.776 416.439 236.828C422.201 229.371 428.309 219.713 434.558 207.215L451.53 163.086V227.32L434.558 230.976L380.246 298.866L375.354 616.251H361.576Z" fill="url(#paint1_linear_0_1)"/>
<path id="Vector_5" d="M329.156 28.737C329.156 28.737 149.421 47.6737 244.466 200.426C244.466 200.426 234.283 258.132 264.833 241.16C264.833 241.16 275.017 271.71 285.2 251.343C285.2 251.343 336.177 271.987 353.519 261.316C353.519 261.316 351.122 257.983 347.516 252.418C328.404 222.931 353.702 186.162 388.464 191.291C390.328 191.566 392.127 191.261 393.824 190.242C393.994 190.14 394.163 190.037 394.332 189.931C410.066 180.107 430.75 189.038 434.228 207.258L441.347 244.554C441.347 244.554 492.264 258.132 475.292 197.031C475.292 197.031 532.998 186.848 505.842 129.141C505.842 129.141 516.026 85.0131 482.081 61.2517C482.081 61.2517 434.212 -51.3005 329.156 28.737Z" fill="url(#paint2_linear_0_1)"/>
<path id="Vector_6" d="M398.964 441.755L394.012 461.322L428.203 460.9L424.29 443.021L398.964 441.755Z" fill="#E29295"/>
<path id="Vector_7" d="M395.932 453.266C395.932 453.266 380.667 480.146 383.451 509.839C383.451 509.839 405.956 526.879 442.108 511.105L427.226 451.719L395.932 453.266Z" fill="#090814"/>
<path id="Vector_8" d="M403.876 381.035C403.876 373.419 410.051 367.245 417.667 367.245C425.284 367.245 431.458 373.419 431.458 381.035C431.458 387.212 427.397 392.44 421.799 394.196L419.133 411.815L405.542 400.489C405.542 400.489 408.478 396.749 410.053 392.532C406.331 390.063 403.876 385.836 403.876 381.035Z" fill="#E29295"/>
<path id="Vector_9" d="M404.248 394.649L420.491 405.032L427.988 418.272C430.159 422.106 430.892 426.588 430.056 430.913L426.611 448.734H390.696L396.371 411.555C397.095 406.809 398.903 402.295 401.653 398.36L404.248 394.649Z" fill="#F50004"/>
<path id="Vector_10" d="M242.139 616.455C242.139 617.365 242.87 618.096 243.78 618.096H600.782C601.692 618.096 602.423 617.365 602.423 616.455C602.423 615.545 601.692 614.814 600.782 614.814H243.78C242.87 614.814 242.139 615.545 242.139 616.455Z" fill="#484565"/>
<g id="right-arm">
<path id="Vector_11" d="M407.027 487.628L406.737 474.264L414.54 474.094L414.83 487.459C416.286 488.811 417.247 490.911 417.299 493.292C417.389 497.457 414.668 500.895 411.22 500.97C407.772 501.045 404.904 497.728 404.814 493.562C404.762 491.181 405.631 489.042 407.027 487.628Z" fill="#E29295"/>
<path id="Vector_12" d="M417.8 420.738V485.517H404.248L400.243 421.284" fill="#F50004"/>
</g>
<g id="left-leg">
<path id="Vector_13" d="M392.639 508.605L385.216 541.082L371.553 606.104L377.885 607.37L421.404 510.461L392.639 508.605Z" fill="#E29295"/>
<path id="Vector_14" d="M370.496 613.856C369.769 613.26 369.377 612.595 369.33 611.879C369.277 611.06 369.681 610.18 370.533 609.266C370.554 609.003 370.818 605.743 371.408 605.159C371.358 604.985 371.058 603.828 371.55 603.077C371.782 602.723 372.155 602.517 372.661 602.464L372.683 602.461L372.693 602.481C372.708 602.506 374.141 605.028 376.298 605.25C377.535 605.376 378.773 604.732 379.978 603.334C380.021 603.231 380.362 601.528 380.582 600.401L380.591 600.356L392.343 606.611L399.212 608.536C400.076 608.778 400.679 609.58 400.679 610.487C400.679 611.261 400.234 611.977 399.545 612.312L396.215 613.933C394.824 614.61 393.273 614.968 391.729 614.968H373.667C372.497 614.968 371.371 614.573 370.496 613.856Z" fill="#090814"/>
</g>
<g id="right-leg">
<path id="Vector_15" d="M406.931 516.003L420.642 546.365L440.779 607.37L449.221 605.259L430.971 500.099L406.931 516.003Z" fill="#E29295"/>
<path id="Vector_16" d="M437.611 613.856C436.884 613.26 436.492 612.595 436.445 611.879C436.391 611.06 436.796 610.18 437.648 609.266C437.668 609.003 437.933 605.743 438.522 605.159C438.473 604.985 438.173 603.828 438.665 603.077C438.896 602.723 439.27 602.517 439.775 602.464L439.797 602.461L439.808 602.481C439.822 602.506 441.256 605.028 443.413 605.25C444.649 605.376 445.887 604.732 447.093 603.334C447.136 603.231 447.477 601.528 447.696 600.401L447.705 600.356L459.457 606.611L466.327 608.536C467.19 608.778 467.793 609.58 467.793 610.487C467.793 611.261 467.348 611.977 466.66 612.312L463.33 613.933C461.939 614.61 460.387 614.968 458.843 614.968H440.781C439.611 614.968 438.485 614.573 437.611 613.856Z" fill="#090814"/>
</g>
<g id="hair">
<path id="Vector_17" d="M396.157 393.129C396.157 393.129 396.801 398.015 402.767 398.175C410.836 398.391 414.87 398.498 414.87 398.498C414.87 398.498 404.639 373.6 408.846 376.405C413.053 379.21 424.271 367.45 424.271 367.45L427.581 373.658C427.581 373.658 435.49 370.795 426.725 363.782C426.725 363.782 416.268 355.697 405.166 360.552C394.065 365.407 396.157 393.129 396.157 393.129Z" fill="#090814"/>
</g>
</g>
<defs>
<linearGradient id="paint0_linear_0_1" x1="648.72" y1="181.025" x2="648.72" y2="347.325" gradientUnits="userSpaceOnUse">
<stop stop-color="#FFFA63"/>
<stop offset="1" stop-color="#B78C16"/>
</linearGradient>
<linearGradient id="paint1_linear_0_1" x1="370.911" y1="117.931" x2="370.911" y2="616.251" gradientUnits="userSpaceOnUse">
<stop stop-color="#4B2509"/>
<stop offset="1" stop-color="#DC762D"/>
</linearGradient>
<linearGradient id="paint2_linear_0_1" x1="364.92" y1="0" x2="364.92" y2="264.378" gradientUnits="userSpaceOnUse">
<stop stop-color="#91DAAF"/>
<stop offset="1" stop-color="#124226"/>
</linearGradient>
<clipPath id="clip0_0_1">
<rect width="953" height="670.025" fill="white"/>
</clipPath>
</defs>
</svg>
